<?xml version="1.0" encoding="UTF-8" standalone="no"?>
<!DOCTYPE svg PUBLIC "-//W3C//DTD SVG 1.1//EN"
 "http://www.w3.org/Graphics/SVG/1.1/DTD/svg11.dtd">
<!-- Generated by graphviz version 2.40.1 (20161225.0304)
 -->
<!-- Title: M1_dawnet_1 Pages: 1 -->
<svg width="2855pt" height="250pt"
 viewBox="0.00 0.00 2855.00 249.86" xmlns="http://www.w3.org/2000/svg" xmlns:xlink="http://www.w3.org/1999/xlink">
<g id="graph0" class="graph" transform="scale(1 1) rotate(0) translate(4 245.8567)">
<title>M1_dawnet_1</title>
<!-- dawnet_1_SA4A_u -->
<g id="node1" class="node">
<title>dawnet_1_SA4A_u</title>
<polygon fill="#ffffff" stroke="transparent" points="2761,-144.3567 2630,-144.3567 2630,-111.3567 2761,-111.3567 2761,-144.3567"/>
<polygon fill="none" stroke="#000000" points="2632.5,-112.8567 2632.5,-141.8567 2759.5,-141.8567 2759.5,-112.8567 2632.5,-112.8567"/>
<text text-anchor="start" x="2639.5" y="-124.6567" font-family="Helvetica,sans-Serif" font-weight="bold" font-size="14.00" fill="#000000">dawnet_1_SA4A_u</text>
</g>
<!-- dawnet_1_SA4A_end -->
<g id="node26" class="node">
<title>dawnet_1_SA4A_end</title>
<ellipse fill="#ffffff" stroke="#000000" cx="2822" cy="-127.8567" rx="25" ry="25"/>
<text text-anchor="start" x="2818" y="-116.0628" font-family="Helvetica,sans-Serif" font-size="26.00" fill="#000000">◼</text>
<text text-anchor="middle" x="2733" y="-91.6567" font-family="Helvetica,sans-Serif" font-size="14.00" fill="#000000">dawnet_1_SA4A_end</text>
</g>
<!-- dawnet_1_SA4A_u&#45;&gt;dawnet_1_SA4A_end -->
<g id="edge2" class="edge">
<title>dawnet_1_SA4A_u&#45;&gt;dawnet_1_SA4A_end</title>
<path fill="none" stroke="#000000" d="M2761.3436,-127.8567C2770.011,-127.8567 2778.6133,-127.8567 2786.498,-127.8567"/>
<polygon fill="#000000" stroke="#000000" points="2786.744,-131.3568 2796.744,-127.8567 2786.7439,-124.3568 2786.744,-131.3568"/>
</g>
<!-- dawnet_1_SA4A_t -->
<g id="node2" class="node">
<title>dawnet_1_SA4A_t</title>
<polygon fill="#ffffff" stroke="transparent" points="2536,-210.3567 2405,-210.3567 2405,-177.3567 2536,-177.3567 2536,-210.3567"/>
<polygon fill="none" stroke="#000000" points="2407.5,-178.8567 2407.5,-207.8567 2534.5,-207.8567 2534.5,-178.8567 2407.5,-178.8567"/>
<text text-anchor="start" x="2414.5" y="-190.6567" font-family="Helvetica,sans-Serif" font-weight="bold" font-size="14.00" fill="#000000">dawnet_1_SA4A_t</text>
</g>
<!-- dawnet_1_SA4A_p16 -->
<g id="node32" class="node">
<title>dawnet_1_SA4A_p16</title>
<ellipse fill="#ffffff" stroke="#000000" cx="2583" cy="-127.8567" rx="11" ry="11"/>
<text text-anchor="middle" x="2530" y="-142.6567" font-family="Helvetica,sans-Serif" font-size="14.00" fill="#000000">dawnet_1_SA4A_p16</text>
</g>
<!-- dawnet_1_SA4A_t&#45;&gt;dawnet_1_SA4A_p16 -->
<g id="edge4" class="edge">
<title>dawnet_1_SA4A_t&#45;&gt;dawnet_1_SA4A_p16</title>
<path fill="none" stroke="#000000" d="M2498.8885,-177.2021C2519.4292,-165.1516 2546.6012,-149.2107 2564.4276,-138.7525"/>
<polygon fill="#000000" stroke="#000000" points="2566.414,-141.6451 2573.2682,-133.566 2562.8719,-135.6074 2566.414,-141.6451"/>
</g>
<!-- dawnet_1_SA4A_s -->
<g id="node3" class="node">
<title>dawnet_1_SA4A_s</title>
<polygon fill="#ffffff" stroke="transparent" points="2536,-144.3567 2405,-144.3567 2405,-111.3567 2536,-111.3567 2536,-144.3567"/>
<polygon fill="none" stroke="#000000" points="2407.5,-112.8567 2407.5,-141.8567 2534.5,-141.8567 2534.5,-112.8567 2407.5,-112.8567"/>
<text text-anchor="start" x="2414.5" y="-124.6567" font-family="Helvetica,sans-Serif" font-weight="bold" font-size="14.00" fill="#000000">dawnet_1_SA4A_s</text>
</g>
<!-- dawnet_1_SA4A_s&#45;&gt;dawnet_1_SA4A_p16 -->
<g id="edge6" class="edge">
<title>dawnet_1_SA4A_s&#45;&gt;dawnet_1_SA4A_p16</title>
<path fill="none" stroke="#000000" d="M2536.2672,-127.8567C2545.4633,-127.8567 2554.3098,-127.8567 2561.7848,-127.8567"/>
<polygon fill="#000000" stroke="#000000" points="2561.9439,-131.3568 2571.9439,-127.8567 2561.9438,-124.3568 2561.9439,-131.3568"/>
</g>
<!-- dawnet_1_SA4A_r -->
<g id="node4" class="node">
<title>dawnet_1_SA4A_r</title>
<polygon fill="#ffffff" stroke="transparent" points="2536,-85.3567 2405,-85.3567 2405,-52.3567 2536,-52.3567 2536,-85.3567"/>
<polygon fill="none" stroke="#000000" points="2407.5,-53.8567 2407.5,-82.8567 2534.5,-82.8567 2534.5,-53.8567 2407.5,-53.8567"/>
<text text-anchor="start" x="2414.5" y="-65.6567" font-family="Helvetica,sans-Serif" font-weight="bold" font-size="14.00" fill="#000000">dawnet_1_SA4A_r</text>
</g>
<!-- dawnet_1_SA4A_r&#45;&gt;dawnet_1_SA4A_p16 -->
<g id="edge8" class="edge">
<title>dawnet_1_SA4A_r&#45;&gt;dawnet_1_SA4A_p16</title>
<path fill="none" stroke="#000000" d="M2502.516,-85.3941C2513.179,-90.9236 2525.112,-97.1352 2536,-102.8567 2545.392,-107.7921 2555.8118,-113.3283 2564.449,-117.934"/>
<polygon fill="#000000" stroke="#000000" points="2562.8237,-121.0339 2573.2935,-122.6571 2566.1212,-114.8591 2562.8237,-121.0339"/>
</g>
<!-- dawnet_1_SA4A_p -->
<g id="node5" class="node">
<title>dawnet_1_SA4A_p</title>
<polygon fill="#ffffff" stroke="transparent" points="2307,-241.8567 2116,-241.8567 2116,-177.8567 2307,-177.8567 2307,-241.8567"/>
<polygon fill="none" stroke="#000000" points="2118.5,-210.8567 2118.5,-239.8567 2305.5,-239.8567 2305.5,-210.8567 2118.5,-210.8567"/>
<text text-anchor="start" x="2155.5" y="-222.6567" font-family="Helvetica,sans-Serif" font-weight="bold" font-size="14.00" fill="#000000">dawnet_1_SA4A_p</text>
<polygon fill="none" stroke="#000000" points="2118.5,-179.8567 2118.5,-208.8567 2305.5,-208.8567 2305.5,-179.8567 2118.5,-179.8567"/>
<text text-anchor="start" x="2125.5" y="-190.6567" font-family="Helvetica,sans-Serif" font-size="14.00" fill="#000000">? dawnet_1_SA4A_third=3</text>
</g>
<!-- dawnet_1_SA4A_p15 -->
<g id="node35" class="node">
<title>dawnet_1_SA4A_p15</title>
<ellipse fill="#ffffff" stroke="#000000" cx="2358" cy="-201.8567" rx="11" ry="11"/>
<text text-anchor="middle" x="2433" y="-216.6567" font-family="Helvetica,sans-Serif" font-size="14.00" fill="#000000">dawnet_1_SA4A_p15</text>
</g>
<!-- dawnet_1_SA4A_p&#45;&gt;dawnet_1_SA4A_p15 -->
<g id="edge10" class="edge">
<title>dawnet_1_SA4A_p&#45;&gt;dawnet_1_SA4A_p15</title>
<path fill="none" stroke="#000000" d="M2307.1726,-204.6323C2318.0717,-204.0371 2328.2379,-203.482 2336.5704,-203.0269"/>
<polygon fill="#000000" stroke="#000000" points="2336.8985,-206.5143 2346.6927,-202.4742 2336.5167,-199.5247 2336.8985,-206.5143"/>
</g>
<!-- dawnet_1_SA4A_g -->
<g id="node6" class="node">
<title>dawnet_1_SA4A_g</title>
<polygon fill="#ffffff" stroke="transparent" points="1721,-226.8567 1403,-226.8567 1403,-162.8567 1721,-162.8567 1721,-226.8567"/>
<polygon fill="none" stroke="#000000" points="1405,-195.8567 1405,-224.8567 1719,-224.8567 1719,-195.8567 1405,-195.8567"/>
<text text-anchor="start" x="1505.5" y="-207.6567" font-family="Helvetica,sans-Serif" font-weight="bold" font-size="14.00" fill="#000000">dawnet_1_SA4A_g</text>
<polygon fill="none" stroke="#000000" points="1405,-164.8567 1405,-193.8567 1719,-193.8567 1719,-164.8567 1405,-164.8567"/>
<text text-anchor="start" x="1412" y="-175.6567" font-family="Helvetica,sans-Serif" font-size="14.00" fill="#000000">dawnet_1_SA4A_fifth ←</text>
<text text-anchor="start" x="1576" y="-175.6567" font-family="Helvetica,sans-Serif" font-size="14.00" fill="#000000">{0, 1, 2, 3, 4, 5}</text>
</g>
<!-- dawnet_1_SA4A_p8 -->
<g id="node23" class="node">
<title>dawnet_1_SA4A_p8</title>
<ellipse fill="#ffffff" stroke="#000000" cx="1772" cy="-180.8567" rx="11" ry="11"/>
<text text-anchor="middle" x="1843.5" y="-173.6567" font-family="Helvetica,sans-Serif" font-size="14.00" fill="#000000">dawnet_1_SA4A_p8</text>
</g>
<!-- dawnet_1_SA4A_g&#45;&gt;dawnet_1_SA4A_p8 -->
<g id="edge12" class="edge">
<title>dawnet_1_SA4A_g&#45;&gt;dawnet_1_SA4A_p8</title>
<path fill="none" stroke="#000000" d="M1721.1649,-184.2457C1732.3628,-183.4992 1742.4289,-182.8281 1750.5918,-182.2839"/>
<polygon fill="#000000" stroke="#000000" points="1751.0387,-185.762 1760.7837,-181.6045 1750.573,-178.7775 1751.0387,-185.762"/>
</g>
<!-- dawnet_1_SA4A_f -->
<g id="node7" class="node">
<title>dawnet_1_SA4A_f</title>
<polygon fill="#ffffff" stroke="transparent" points="1267.5,-182.3567 1136.5,-182.3567 1136.5,-149.3567 1267.5,-149.3567 1267.5,-182.3567"/>
<polygon fill="none" stroke="#000000" points="1139,-150.8567 1139,-179.8567 1266,-179.8567 1266,-150.8567 1139,-150.8567"/>
<text text-anchor="start" x="1146" y="-162.6567" font-family="Helvetica,sans-Serif" font-weight="bold" font-size="14.00" fill="#000000">dawnet_1_SA4A_f</text>
</g>
<!-- dawnet_1_SA4A_p6 -->
<g id="node25" class="node">
<title>dawnet_1_SA4A_p6</title>
<ellipse fill="#ffffff" stroke="#000000" cx="1352" cy="-146.8567" rx="11" ry="11"/>
<text text-anchor="middle" x="1423.5" y="-124.6567" font-family="Helvetica,sans-Serif" font-size="14.00" fill="#000000">dawnet_1_SA4A_p6</text>
</g>
<!-- dawnet_1_SA4A_f&#45;&gt;dawnet_1_SA4A_p6 -->
<g id="edge15" class="edge">
<title>dawnet_1_SA4A_f&#45;&gt;dawnet_1_SA4A_p6</title>
<path fill="none" stroke="#000000" d="M1267.7922,-157.523C1290.4332,-154.6552 1314.2108,-151.6434 1330.7028,-149.5544"/>
<polygon fill="#000000" stroke="#000000" points="1331.3721,-152.9976 1340.8529,-148.2687 1330.4924,-146.0531 1331.3721,-152.9976"/>
</g>
<!-- dawnet_1_SA4A_p7 -->
<g id="node31" class="node">
<title>dawnet_1_SA4A_p7</title>
<ellipse fill="#ffffff" stroke="#000000" cx="1352" cy="-98.8567" rx="11" ry="11"/>
<text text-anchor="middle" x="1423.5" y="-107.1567" font-family="Helvetica,sans-Serif" font-size="14.00" fill="#000000">dawnet_1_SA4A_p7</text>
</g>
<!-- dawnet_1_SA4A_f&#45;&gt;dawnet_1_SA4A_p7 -->
<g id="edge16" class="edge">
<title>dawnet_1_SA4A_f&#45;&gt;dawnet_1_SA4A_p7</title>
<path fill="none" stroke="#000000" d="M1267.7233,-154.1854C1280.4948,-150.5682 1293.4809,-145.8873 1305,-139.8567 1317.1921,-133.4738 1328.8626,-123.3233 1337.5244,-114.7192"/>
<polygon fill="#000000" stroke="#000000" points="1340.1508,-117.0377 1344.562,-107.4048 1335.1064,-112.1843 1340.1508,-117.0377"/>
</g>
<!-- dawnet_1_SA4A_p5 -->
<g id="node33" class="node">
<title>dawnet_1_SA4A_p5</title>
<ellipse fill="#ffffff" stroke="#000000" cx="1352" cy="-190.8567" rx="11" ry="11"/>
<text text-anchor="middle" x="1280.5" y="-205.6567" font-family="Helvetica,sans-Serif" font-size="14.00" fill="#000000">dawnet_1_SA4A_p5</text>
</g>
<!-- dawnet_1_SA4A_f&#45;&gt;dawnet_1_SA4A_p5 -->
<g id="edge14" class="edge">
<title>dawnet_1_SA4A_f&#45;&gt;dawnet_1_SA4A_p5</title>
<path fill="none" stroke="#000000" d="M1267.7922,-176.8221C1290.5611,-180.6169 1314.4795,-184.6033 1330.9816,-187.3537"/>
<polygon fill="#000000" stroke="#000000" points="1330.6768,-190.8511 1341.1161,-189.0427 1331.8276,-183.9463 1330.6768,-190.8511"/>
</g>
<!-- dawnet_1_SA4A_e -->
<g id="node8" class="node">
<title>dawnet_1_SA4A_e</title>
<polygon fill="#ffffff" stroke="transparent" points="1005,-207.3567 874,-207.3567 874,-174.3567 1005,-174.3567 1005,-207.3567"/>
<polygon fill="none" stroke="#000000" points="876.5,-175.8567 876.5,-204.8567 1003.5,-204.8567 1003.5,-175.8567 876.5,-175.8567"/>
<text text-anchor="start" x="883.5" y="-187.6567" font-family="Helvetica,sans-Serif" font-weight="bold" font-size="14.00" fill="#000000">dawnet_1_SA4A_e</text>
</g>
<!-- dawnet_1_SA4A_p4 -->
<g id="node20" class="node">
<title>dawnet_1_SA4A_p4</title>
<ellipse fill="#ffffff" stroke="#000000" cx="1052" cy="-165.8567" rx="11" ry="11"/>
<text text-anchor="middle" x="980.5" y="-158.6567" font-family="Helvetica,sans-Serif" font-size="14.00" fill="#000000">dawnet_1_SA4A_p4</text>
</g>
<!-- dawnet_1_SA4A_e&#45;&gt;dawnet_1_SA4A_p4 -->
<g id="edge18" class="edge">
<title>dawnet_1_SA4A_e&#45;&gt;dawnet_1_SA4A_p4</title>
<path fill="none" stroke="#000000" d="M1005.2672,-176.2418C1014.5714,-174.1742 1023.5179,-172.1861 1031.048,-170.5127"/>
<polygon fill="#000000" stroke="#000000" points="1031.9413,-173.8997 1040.9439,-168.3136 1030.4227,-167.0664 1031.9413,-173.8997"/>
</g>
<!-- dawnet_1_SA4A_d -->
<g id="node9" class="node">
<title>dawnet_1_SA4A_d</title>
<polygon fill="#ffffff" stroke="transparent" points="1005,-156.3567 874,-156.3567 874,-123.3567 1005,-123.3567 1005,-156.3567"/>
<polygon fill="none" stroke="#000000" points="876.5,-124.8567 876.5,-153.8567 1003.5,-153.8567 1003.5,-124.8567 876.5,-124.8567"/>
<text text-anchor="start" x="883.5" y="-136.6567" font-family="Helvetica,sans-Serif" font-weight="bold" font-size="14.00" fill="#000000">dawnet_1_SA4A_d</text>
</g>
<!-- dawnet_1_SA4A_d&#45;&gt;dawnet_1_SA4A_p4 -->
<g id="edge20" class="edge">
<title>dawnet_1_SA4A_d&#45;&gt;dawnet_1_SA4A_p4</title>
<path fill="none" stroke="#000000" d="M1005.2672,-155.0563C1014.5714,-157.2066 1023.5179,-159.2742 1031.048,-161.0145"/>
<polygon fill="#000000" stroke="#000000" points="1030.4125,-164.4598 1040.9439,-163.3015 1031.9888,-157.6396 1030.4125,-164.4598"/>
</g>
<!-- dawnet_1_SA4A_c -->
<g id="node10" class="node">
<title>dawnet_1_SA4A_c</title>
<polygon fill="#ffffff" stroke="transparent" points="780,-207.3567 649,-207.3567 649,-174.3567 780,-174.3567 780,-207.3567"/>
<polygon fill="none" stroke="#000000" points="651.5,-175.8567 651.5,-204.8567 778.5,-204.8567 778.5,-175.8567 651.5,-175.8567"/>
<text text-anchor="start" x="658.5" y="-187.6567" font-family="Helvetica,sans-Serif" font-weight="bold" font-size="14.00" fill="#000000">dawnet_1_SA4A_c</text>
</g>
<!-- dawnet_1_SA4A_p3 -->
<g id="node19" class="node">
<title>dawnet_1_SA4A_p3</title>
<ellipse fill="#ffffff" stroke="#000000" cx="827" cy="-190.8567" rx="11" ry="11"/>
<text text-anchor="middle" x="777.5" y="-205.6567" font-family="Helvetica,sans-Serif" font-size="14.00" fill="#000000">dawnet_1_SA4A_p3</text>
</g>
<!-- dawnet_1_SA4A_c&#45;&gt;dawnet_1_SA4A_p3 -->
<g id="edge22" class="edge">
<title>dawnet_1_SA4A_c&#45;&gt;dawnet_1_SA4A_p3</title>
<path fill="none" stroke="#000000" d="M780.2672,-190.8567C789.4633,-190.8567 798.3098,-190.8567 805.7848,-190.8567"/>
<polygon fill="#000000" stroke="#000000" points="805.9439,-194.3568 815.9439,-190.8567 805.9438,-187.3568 805.9439,-194.3568"/>
</g>
<!-- dawnet_1_SA4A_b -->
<g id="node11" class="node">
<title>dawnet_1_SA4A_b</title>
<polygon fill="#ffffff" stroke="transparent" points="780,-156.3567 649,-156.3567 649,-123.3567 780,-123.3567 780,-156.3567"/>
<polygon fill="none" stroke="#000000" points="651.5,-124.8567 651.5,-153.8567 778.5,-153.8567 778.5,-124.8567 651.5,-124.8567"/>
<text text-anchor="start" x="658.5" y="-136.6567" font-family="Helvetica,sans-Serif" font-weight="bold" font-size="14.00" fill="#000000">dawnet_1_SA4A_b</text>
</g>
<!-- dawnet_1_SA4A_p2 -->
<g id="node30" class="node">
<title>dawnet_1_SA4A_p2</title>
<ellipse fill="#ffffff" stroke="#000000" cx="827" cy="-139.8567" rx="11" ry="11"/>
<text text-anchor="middle" x="777.5" y="-117.6567" font-family="Helvetica,sans-Serif" font-size="14.00" fill="#000000">dawnet_1_SA4A_p2</text>
</g>
<!-- dawnet_1_SA4A_b&#45;&gt;dawnet_1_SA4A_p2 -->
<g id="edge24" class="edge">
<title>dawnet_1_SA4A_b&#45;&gt;dawnet_1_SA4A_p2</title>
<path fill="none" stroke="#000000" d="M780.2672,-139.8567C789.4633,-139.8567 798.3098,-139.8567 805.7848,-139.8567"/>
<polygon fill="#000000" stroke="#000000" points="805.9439,-143.3568 815.9439,-139.8567 805.9438,-136.3568 805.9439,-143.3568"/>
</g>
<!-- dawnet_1_SA4A_a -->
<g id="node12" class="node">
<title>dawnet_1_SA4A_a</title>
<polygon fill="#ffffff" stroke="transparent" points="555,-228.3567 229,-228.3567 229,-101.3567 555,-101.3567 555,-228.3567"/>
<polygon fill="none" stroke="#000000" points="231,-196.8567 231,-225.8567 553,-225.8567 553,-196.8567 231,-196.8567"/>
<text text-anchor="start" x="335.5" y="-208.6567" font-family="Helvetica,sans-Serif" font-weight="bold" font-size="14.00" fill="#000000">dawnet_1_SA4A_a</text>
<polygon fill="none" stroke="#000000" points="231,-102.8567 231,-194.8567 553,-194.8567 553,-102.8567 231,-102.8567"/>
<text text-anchor="start" x="238" y="-176.6567" font-family="Helvetica,sans-Serif" font-size="14.00" fill="#000000">dawnet_1_SA4A_second ←</text>
<text text-anchor="start" x="410" y="-176.6567" font-family="Helvetica,sans-Serif" font-size="14.00" fill="#000000">{0, 1, 2, 3, 4, 5}</text>
<text text-anchor="start" x="242" y="-155.6567" font-family="Helvetica,sans-Serif" font-size="14.00" fill="#000000">dawnet_1_SA4A_first ←</text>
<text text-anchor="start" x="410" y="-155.6567" font-family="Helvetica,sans-Serif" font-size="14.00" fill="#000000">{0, 1, 2, 3, 4, 5}</text>
<text text-anchor="start" x="238" y="-134.6567" font-family="Helvetica,sans-Serif" font-size="14.00" fill="#000000">dawnet_1_SA4A_fourth ←</text>
<text text-anchor="start" x="410" y="-134.6567" font-family="Helvetica,sans-Serif" font-size="14.00" fill="#000000">{0, 1, 2, 3, 4, 5}</text>
<text text-anchor="start" x="242" y="-113.6567" font-family="Helvetica,sans-Serif" font-size="14.00" fill="#000000">dawnet_1_SA4A_third ←</text>
<text text-anchor="start" x="410" y="-113.6567" font-family="Helvetica,sans-Serif" font-size="14.00" fill="#000000">{0, 1, 2, 3, 4, 5}</text>
</g>
<!-- dawnet_1_SA4A_p1 -->
<g id="node27" class="node">
<title>dawnet_1_SA4A_p1</title>
<ellipse fill="#ffffff" stroke="#000000" cx="602" cy="-164.8567" rx="11" ry="11"/>
<text text-anchor="middle" x="673.5" y="-160.1567" font-family="Helvetica,sans-Serif" font-size="14.00" fill="#000000">dawnet_1_SA4A_p1</text>
</g>
<!-- dawnet_1_SA4A_a&#45;&gt;dawnet_1_SA4A_p1 -->
<g id="edge26" class="edge">
<title>dawnet_1_SA4A_a&#45;&gt;dawnet_1_SA4A_p1</title>
<path fill="none" stroke="#000000" d="M555.1333,-164.8567C564.7719,-164.8567 573.4562,-164.8567 580.6552,-164.8567"/>
<polygon fill="#000000" stroke="#000000" points="580.6688,-168.3568 590.6688,-164.8567 580.6688,-161.3568 580.6688,-168.3568"/>
</g>
<!-- dawnet_1_SA4A_o -->
<g id="node13" class="node">
<title>dawnet_1_SA4A_o</title>
<polygon fill="#ffffff" stroke="transparent" points="2311,-159.8567 2112,-159.8567 2112,-95.8567 2311,-95.8567 2311,-159.8567"/>
<polygon fill="none" stroke="#000000" points="2114.5,-128.8567 2114.5,-157.8567 2309.5,-157.8567 2309.5,-128.8567 2114.5,-128.8567"/>
<text text-anchor="start" x="2155.5" y="-140.6567" font-family="Helvetica,sans-Serif" font-weight="bold" font-size="14.00" fill="#000000">dawnet_1_SA4A_o</text>
<polygon fill="none" stroke="#000000" points="2114.5,-97.8567 2114.5,-126.8567 2309.5,-126.8567 2309.5,-97.8567 2114.5,-97.8567"/>
<text text-anchor="start" x="2121.5" y="-108.6567" font-family="Helvetica,sans-Serif" font-size="14.00" fill="#000000">? dawnet_1_SA4A_second=2</text>
</g>
<!-- dawnet_1_SA4A_p14 -->
<g id="node34" class="node">
<title>dawnet_1_SA4A_p14</title>
<ellipse fill="#ffffff" stroke="#000000" cx="2358" cy="-127.8567" rx="11" ry="11"/>
<text text-anchor="middle" x="2433" y="-105.6567" font-family="Helvetica,sans-Serif" font-size="14.00" fill="#000000">dawnet_1_SA4A_p14</text>
</g>
<!-- dawnet_1_SA4A_o&#45;&gt;dawnet_1_SA4A_p14 -->
<g id="edge28" class="edge">
<title>dawnet_1_SA4A_o&#45;&gt;dawnet_1_SA4A_p14</title>
<path fill="none" stroke="#000000" d="M2311.2437,-127.8567C2320.5531,-127.8567 2329.2026,-127.8567 2336.4669,-127.8567"/>
<polygon fill="#000000" stroke="#000000" points="2336.6377,-131.3568 2346.6377,-127.8567 2336.6377,-124.3568 2336.6377,-131.3568"/>
</g>
<!-- dawnet_1_SA4A_n -->
<g id="node14" class="node">
<title>dawnet_1_SA4A_n</title>
<polygon fill="#ffffff" stroke="transparent" points="2307,-77.8567 2116,-77.8567 2116,-13.8567 2307,-13.8567 2307,-77.8567"/>
<polygon fill="none" stroke="#000000" points="2118.5,-46.8567 2118.5,-75.8567 2305.5,-75.8567 2305.5,-46.8567 2118.5,-46.8567"/>
<text text-anchor="start" x="2155.5" y="-58.6567" font-family="Helvetica,sans-Serif" font-weight="bold" font-size="14.00" fill="#000000">dawnet_1_SA4A_n</text>
<polygon fill="none" stroke="#000000" points="2118.5,-15.8567 2118.5,-44.8567 2305.5,-44.8567 2305.5,-15.8567 2118.5,-15.8567"/>
<text text-anchor="start" x="2125.5" y="-26.6567" font-family="Helvetica,sans-Serif" font-size="14.00" fill="#000000">? dawnet_1_SA4A_first=1</text>
</g>
<!-- dawnet_1_SA4A_p13 -->
<g id="node29" class="node">
<title>dawnet_1_SA4A_p13</title>
<ellipse fill="#ffffff" stroke="#000000" cx="2358" cy="-53.8567" rx="11" ry="11"/>
<text text-anchor="middle" x="2433" y="-31.6567" font-family="Helvetica,sans-Serif" font-size="14.00" fill="#000000">dawnet_1_SA4A_p13</text>
</g>
<!-- dawnet_1_SA4A_n&#45;&gt;dawnet_1_SA4A_p13 -->
<g id="edge30" class="edge">
<title>dawnet_1_SA4A_n&#45;&gt;dawnet_1_SA4A_p13</title>
<path fill="none" stroke="#000000" d="M2307.1726,-51.0812C2318.0717,-51.6763 2328.2379,-52.2315 2336.5704,-52.6865"/>
<polygon fill="#000000" stroke="#000000" points="2336.5167,-56.1887 2346.6927,-53.2393 2336.8985,-49.1991 2336.5167,-56.1887"/>
</g>
<!-- dawnet_1_SA4A_m -->
<g id="node15" class="node">
<title>dawnet_1_SA4A_m</title>
<polygon fill="#ffffff" stroke="transparent" points="2018,-159.8567 1819,-159.8567 1819,-95.8567 2018,-95.8567 2018,-159.8567"/>
<polygon fill="none" stroke="#000000" points="1821.5,-128.8567 1821.5,-157.8567 2016.5,-157.8567 2016.5,-128.8567 1821.5,-128.8567"/>
<text text-anchor="start" x="1862.5" y="-140.6567" font-family="Helvetica,sans-Serif" font-weight="bold" font-size="14.00" fill="#000000">dawnet_1_SA4A_m</text>
<polygon fill="none" stroke="#000000" points="1821.5,-97.8567 1821.5,-126.8567 2016.5,-126.8567 2016.5,-97.8567 1821.5,-97.8567"/>
<text text-anchor="start" x="1828.5" y="-108.6567" font-family="Helvetica,sans-Serif" font-size="14.00" fill="#000000">? dawnet_1_SA4A_number=5</text>
</g>
<!-- dawnet_1_SA4A_p12 -->
<g id="node28" class="node">
<title>dawnet_1_SA4A_p12</title>
<ellipse fill="#ffffff" stroke="#000000" cx="2065" cy="-127.8567" rx="11" ry="11"/>
<text text-anchor="middle" x="2012" y="-105.6567" font-family="Helvetica,sans-Serif" font-size="14.00" fill="#000000">dawnet_1_SA4A_p12</text>
</g>
<!-- dawnet_1_SA4A_m&#45;&gt;dawnet_1_SA4A_p12 -->
<g id="edge34" class="edge">
<title>dawnet_1_SA4A_m&#45;&gt;dawnet_1_SA4A_p12</title>
<path fill="none" stroke="#000000" d="M2018.2437,-127.8567C2027.5531,-127.8567 2036.2026,-127.8567 2043.4669,-127.8567"/>
<polygon fill="#000000" stroke="#000000" points="2043.6377,-131.3568 2053.6377,-127.8567 2043.6377,-124.3568 2043.6377,-131.3568"/>
</g>
<!-- dawnet_1_SA4A_l -->
<g id="node16" class="node">
<title>dawnet_1_SA4A_l</title>
<polygon fill="#ffffff" stroke="transparent" points="1305,-130.8567 1099,-130.8567 1099,-66.8567 1305,-66.8567 1305,-130.8567"/>
<polygon fill="none" stroke="#000000" points="1101,-99.8567 1101,-128.8567 1303,-128.8567 1303,-99.8567 1101,-99.8567"/>
<text text-anchor="start" x="1145.5" y="-111.6567" font-family="Helvetica,sans-Serif" font-weight="bold" font-size="14.00" fill="#000000">dawnet_1_SA4A_l</text>
<polygon fill="none" stroke="#000000" points="1101,-68.8567 1101,-97.8567 1303,-97.8567 1303,-68.8567 1101,-68.8567"/>
<text text-anchor="start" x="1108" y="-79.6567" font-family="Helvetica,sans-Serif" font-size="14.00" fill="#000000">? dawnet_1_SA4A_number!=5</text>
</g>
<!-- dawnet_1_SA4A_l&#45;&gt;dawnet_1_SA4A_p7 -->
<g id="edge36" class="edge">
<title>dawnet_1_SA4A_l&#45;&gt;dawnet_1_SA4A_p7</title>
<path fill="none" stroke="#000000" d="M1305.3613,-98.8567C1314.6859,-98.8567 1323.3246,-98.8567 1330.5688,-98.8567"/>
<polygon fill="#000000" stroke="#000000" points="1330.7026,-102.3568 1340.7026,-98.8567 1330.7025,-95.3568 1330.7026,-102.3568"/>
</g>
<!-- dawnet_1_SA4A_i -->
<g id="node17" class="node">
<title>dawnet_1_SA4A_i</title>
<polygon fill="#ffffff" stroke="transparent" points="1725,-92.8567 1399,-92.8567 1399,-28.8567 1725,-28.8567 1725,-92.8567"/>
<polygon fill="none" stroke="#000000" points="1401,-61.8567 1401,-90.8567 1723,-90.8567 1723,-61.8567 1401,-61.8567"/>
<text text-anchor="start" x="1505.5" y="-73.6567" font-family="Helvetica,sans-Serif" font-weight="bold" font-size="14.00" fill="#000000">dawnet_1_SA4A_i</text>
<polygon fill="none" stroke="#000000" points="1401,-30.8567 1401,-59.8567 1723,-59.8567 1723,-30.8567 1401,-30.8567"/>
<text text-anchor="start" x="1408" y="-41.6567" font-family="Helvetica,sans-Serif" font-size="14.00" fill="#000000">dawnet_1_SA4A_number ←</text>
<text text-anchor="start" x="1580" y="-41.6567" font-family="Helvetica,sans-Serif" font-size="14.00" fill="#000000">{0, 1, 2, 3, 4, 5}</text>
</g>
<!-- dawnet_1_SA4A_p10 -->
<g id="node22" class="node">
<title>dawnet_1_SA4A_p10</title>
<ellipse fill="#ffffff" stroke="#000000" cx="1052" cy="-38.8567" rx="11" ry="11"/>
<text text-anchor="middle" x="977" y="-16.6567" font-family="Helvetica,sans-Serif" font-size="14.00" fill="#000000">dawnet_1_SA4A_p10</text>
</g>
<!-- dawnet_1_SA4A_i&#45;&gt;dawnet_1_SA4A_p10 -->
<g id="edge38" class="edge">
<title>dawnet_1_SA4A_i&#45;&gt;dawnet_1_SA4A_p10</title>
<path fill="none" stroke="#000000" d="M1398.715,-53.8131C1279.0989,-48.6531 1128.4197,-42.1533 1073.3751,-39.7788"/>
<polygon fill="#000000" stroke="#000000" points="1073.268,-36.271 1063.1264,-39.3367 1072.9662,-43.2645 1073.268,-36.271"/>
</g>
<!-- dawnet_1_SA4A_h -->
<g id="node18" class="node">
<title>dawnet_1_SA4A_h</title>
<polygon fill="#ffffff" stroke="transparent" points="1627.5,-144.3567 1496.5,-144.3567 1496.5,-111.3567 1627.5,-111.3567 1627.5,-144.3567"/>
<polygon fill="none" stroke="#000000" points="1499,-112.8567 1499,-141.8567 1626,-141.8567 1626,-112.8567 1499,-112.8567"/>
<text text-anchor="start" x="1506" y="-124.6567" font-family="Helvetica,sans-Serif" font-weight="bold" font-size="14.00" fill="#000000">dawnet_1_SA4A_h</text>
</g>
<!-- dawnet_1_SA4A_p9 -->
<g id="node24" class="node">
<title>dawnet_1_SA4A_p9</title>
<ellipse fill="#ffffff" stroke="#000000" cx="1772" cy="-127.8567" rx="11" ry="11"/>
<text text-anchor="middle" x="1700.5" y="-105.6567" font-family="Helvetica,sans-Serif" font-size="14.00" fill="#000000">dawnet_1_SA4A_p9</text>
</g>
<!-- dawnet_1_SA4A_h&#45;&gt;dawnet_1_SA4A_p9 -->
<g id="edge40" class="edge">
<title>dawnet_1_SA4A_h&#45;&gt;dawnet_1_SA4A_p9</title>
<path fill="none" stroke="#000000" d="M1627.5815,-127.8567C1669.8657,-127.8567 1722.127,-127.8567 1750.7587,-127.8567"/>
<polygon fill="#000000" stroke="#000000" points="1750.8329,-131.3568 1760.8329,-127.8567 1750.8329,-124.3568 1750.8329,-131.3568"/>
</g>
<!-- dawnet_1_SA4A_p3&#45;&gt;dawnet_1_SA4A_e -->
<g id="edge17" class="edge">
<title>dawnet_1_SA4A_p3&#45;&gt;dawnet_1_SA4A_e</title>
<path fill="none" stroke="#000000" d="M838.1982,-190.8567C844.7841,-190.8567 853.7479,-190.8567 863.6361,-190.8567"/>
<polygon fill="#000000" stroke="#000000" points="863.7786,-194.3568 873.7785,-190.8567 863.7785,-187.3568 863.7786,-194.3568"/>
</g>
<!-- dawnet_1_SA4A_p4&#45;&gt;dawnet_1_SA4A_f -->
<g id="edge13" class="edge">
<title>dawnet_1_SA4A_p4&#45;&gt;dawnet_1_SA4A_f</title>
<path fill="none" stroke="#000000" d="M1063.2744,-165.8567C1077.0474,-165.8567 1101.5697,-165.8567 1126.2063,-165.8567"/>
<polygon fill="#000000" stroke="#000000" points="1126.3681,-169.3568 1136.3681,-165.8567 1126.368,-162.3568 1126.3681,-169.3568"/>
</g>
<!-- dawnet_1_SA4A_start -->
<g id="node21" class="node">
<title>dawnet_1_SA4A_start</title>
<ellipse fill="#ffffff" stroke="#000000" cx="168" cy="-164.8567" rx="25" ry="25"/>
<text text-anchor="start" x="164" y="-153.0628" font-family="Helvetica,sans-Serif" font-size="26.00" fill="#000000">►</text>
<text text-anchor="middle" x="71.5" y="-128.6567" font-family="Helvetica,sans-Serif" font-size="14.00" fill="#000000">dawnet_1_SA4A_start</text>
</g>
<!-- dawnet_1_SA4A_start&#45;&gt;dawnet_1_SA4A_a -->
<g id="edge25" class="edge">
<title>dawnet_1_SA4A_start&#45;&gt;dawnet_1_SA4A_a</title>
<path fill="none" stroke="#000000" d="M193.2602,-164.8567C200.5633,-164.8567 209.1341,-164.8567 218.5431,-164.8567"/>
<polygon fill="#000000" stroke="#000000" points="218.6338,-168.3568 228.6338,-164.8567 218.6337,-161.3568 218.6338,-168.3568"/>
</g>
<!-- dawnet_1_SA4A_p10&#45;&gt;dawnet_1_SA4A_m -->
<g id="edge31" class="edge">
<title>dawnet_1_SA4A_p10&#45;&gt;dawnet_1_SA4A_m</title>
<path fill="none" stroke="#000000" d="M1062.8343,-36.4797C1101.7325,-28.1605 1238.0761,-.8567 1352,-.8567 1352,-.8567 1352,-.8567 1562,-.8567 1634.9349,-.8567 1655.5987,2.5702 1725,-19.8567 1775.1589,-36.0655 1827.0555,-65.8612 1864.4613,-90.0569"/>
<polygon fill="#000000" stroke="#000000" points="1862.8863,-93.2091 1873.1699,-95.7582 1866.7205,-87.3525 1862.8863,-93.2091"/>
</g>
<!-- dawnet_1_SA4A_p10&#45;&gt;dawnet_1_SA4A_l -->
<g id="edge35" class="edge">
<title>dawnet_1_SA4A_p10&#45;&gt;dawnet_1_SA4A_l</title>
<path fill="none" stroke="#000000" d="M1062.3101,-42.9808C1073.3881,-47.412 1092.1504,-54.9169 1112.3893,-63.0124"/>
<polygon fill="#000000" stroke="#000000" points="1111.1852,-66.3004 1121.7698,-66.7646 1113.7849,-59.801 1111.1852,-66.3004"/>
</g>
<!-- dawnet_1_SA4A_p8&#45;&gt;dawnet_1_SA4A_m -->
<g id="edge32" class="edge">
<title>dawnet_1_SA4A_p8&#45;&gt;dawnet_1_SA4A_m</title>
<path fill="none" stroke="#000000" d="M1782.5359,-177.0451C1791.3919,-173.8412 1805.0287,-168.9078 1820.31,-163.3794"/>
<polygon fill="#000000" stroke="#000000" points="1821.7963,-166.5637 1830.0092,-159.8705 1819.4149,-159.9813 1821.7963,-166.5637"/>
</g>
<!-- dawnet_1_SA4A_p9&#45;&gt;dawnet_1_SA4A_m -->
<g id="edge33" class="edge">
<title>dawnet_1_SA4A_p9&#45;&gt;dawnet_1_SA4A_m</title>
<path fill="none" stroke="#000000" d="M1783.0113,-127.8567C1789.5165,-127.8567 1798.4768,-127.8567 1808.7177,-127.8567"/>
<polygon fill="#000000" stroke="#000000" points="1808.8903,-131.3568 1818.8902,-127.8567 1808.8902,-124.3568 1808.8903,-131.3568"/>
</g>
<!-- dawnet_1_SA4A_p6&#45;&gt;dawnet_1_SA4A_h -->
<g id="edge39" class="edge">
<title>dawnet_1_SA4A_p6&#45;&gt;dawnet_1_SA4A_h</title>
<path fill="none" stroke="#000000" d="M1362.9948,-145.862C1385.7957,-143.799 1439.9468,-138.8996 1486.013,-134.7317"/>
<polygon fill="#000000" stroke="#000000" points="1486.3633,-138.2144 1496.0072,-133.8275 1485.7324,-131.2429 1486.3633,-138.2144"/>
</g>
<!-- dawnet_1_SA4A_p1&#45;&gt;dawnet_1_SA4A_c -->
<g id="edge21" class="edge">
<title>dawnet_1_SA4A_p1&#45;&gt;dawnet_1_SA4A_c</title>
<path fill="none" stroke="#000000" d="M612.787,-167.3497C619.4552,-168.8908 628.6694,-171.0203 638.8498,-173.3731"/>
<polygon fill="#000000" stroke="#000000" points="638.3235,-176.8437 648.8548,-175.6854 639.8998,-170.0234 638.3235,-176.8437"/>
</g>
<!-- dawnet_1_SA4A_p1&#45;&gt;dawnet_1_SA4A_b -->
<g id="edge23" class="edge">
<title>dawnet_1_SA4A_p1&#45;&gt;dawnet_1_SA4A_b</title>
<path fill="none" stroke="#000000" d="M612.787,-162.4596C619.4552,-160.9778 628.6694,-158.9302 638.8498,-156.6679"/>
<polygon fill="#000000" stroke="#000000" points="639.8522,-160.0306 648.8548,-154.4445 638.3337,-153.1973 639.8522,-160.0306"/>
</g>
<!-- dawnet_1_SA4A_p12&#45;&gt;dawnet_1_SA4A_p -->
<g id="edge9" class="edge">
<title>dawnet_1_SA4A_p12&#45;&gt;dawnet_1_SA4A_p</title>
<path fill="none" stroke="#000000" d="M2072.675,-135.9892C2081.4904,-144.9674 2096.7147,-159.399 2112,-168.8567 2114.2243,-170.233 2116.5029,-171.5814 2118.8232,-172.9008"/>
<polygon fill="#000000" stroke="#000000" points="2117.4928,-176.1605 2127.953,-177.844 2120.8257,-170.0048 2117.4928,-176.1605"/>
</g>
<!-- dawnet_1_SA4A_p12&#45;&gt;dawnet_1_SA4A_o -->
<g id="edge27" class="edge">
<title>dawnet_1_SA4A_p12&#45;&gt;dawnet_1_SA4A_o</title>
<path fill="none" stroke="#000000" d="M2076.0113,-127.8567C2082.5165,-127.8567 2091.4768,-127.8567 2101.7177,-127.8567"/>
<polygon fill="#000000" stroke="#000000" points="2101.8903,-131.3568 2111.8902,-127.8567 2101.8902,-124.3568 2101.8903,-131.3568"/>
</g>
<!-- dawnet_1_SA4A_p12&#45;&gt;dawnet_1_SA4A_n -->
<g id="edge29" class="edge">
<title>dawnet_1_SA4A_p12&#45;&gt;dawnet_1_SA4A_n</title>
<path fill="none" stroke="#000000" d="M2072.675,-119.7243C2081.4904,-110.746 2096.7147,-96.3144 2112,-86.8567 2114.2243,-85.4804 2116.5029,-84.1321 2118.8232,-82.8127"/>
<polygon fill="#000000" stroke="#000000" points="2120.8257,-85.7086 2127.953,-77.8695 2117.4928,-79.5529 2120.8257,-85.7086"/>
</g>
<!-- dawnet_1_SA4A_p13&#45;&gt;dawnet_1_SA4A_r -->
<g id="edge7" class="edge">
<title>dawnet_1_SA4A_p13&#45;&gt;dawnet_1_SA4A_r</title>
<path fill="none" stroke="#000000" d="M2369.1982,-55.3498C2375.7841,-56.2279 2384.7479,-57.4231 2394.6361,-58.7415"/>
<polygon fill="#000000" stroke="#000000" points="2394.4037,-62.2414 2404.7785,-60.0939 2395.3289,-55.3028 2394.4037,-62.2414"/>
</g>
<!-- dawnet_1_SA4A_p2&#45;&gt;dawnet_1_SA4A_d -->
<g id="edge19" class="edge">
<title>dawnet_1_SA4A_p2&#45;&gt;dawnet_1_SA4A_d</title>
<path fill="none" stroke="#000000" d="M838.1982,-139.8567C844.7841,-139.8567 853.7479,-139.8567 863.6361,-139.8567"/>
<polygon fill="#000000" stroke="#000000" points="863.7786,-143.3568 873.7785,-139.8567 863.7785,-136.3568 863.7786,-143.3568"/>
</g>
<!-- dawnet_1_SA4A_p7&#45;&gt;dawnet_1_SA4A_i -->
<g id="edge37" class="edge">
<title>dawnet_1_SA4A_p7&#45;&gt;dawnet_1_SA4A_i</title>
<path fill="none" stroke="#000000" d="M1362.9948,-96.8672C1369.3915,-95.7097 1378.2557,-94.1057 1388.7166,-92.2128"/>
<polygon fill="#000000" stroke="#000000" points="1389.5305,-95.6224 1398.7474,-90.3977 1388.284,-88.7343 1389.5305,-95.6224"/>
</g>
<!-- dawnet_1_SA4A_p16&#45;&gt;dawnet_1_SA4A_u -->
<g id="edge1" class="edge">
<title>dawnet_1_SA4A_p16&#45;&gt;dawnet_1_SA4A_u</title>
<path fill="none" stroke="#000000" d="M2594.1982,-127.8567C2600.7841,-127.8567 2609.7479,-127.8567 2619.6361,-127.8567"/>
<polygon fill="#000000" stroke="#000000" points="2619.7786,-131.3568 2629.7785,-127.8567 2619.7785,-124.3568 2619.7786,-131.3568"/>
</g>
<!-- dawnet_1_SA4A_p5&#45;&gt;dawnet_1_SA4A_g -->
<g id="edge11" class="edge">
<title>dawnet_1_SA4A_p5&#45;&gt;dawnet_1_SA4A_g</title>
<path fill="none" stroke="#000000" d="M1363.2905,-191.0718C1370.4834,-191.2088 1380.7074,-191.4035 1392.7674,-191.6332"/>
<polygon fill="#000000" stroke="#000000" points="1392.7452,-195.1334 1402.81,-191.8245 1392.8785,-188.1346 1392.7452,-195.1334"/>
</g>
<!-- dawnet_1_SA4A_p14&#45;&gt;dawnet_1_SA4A_s -->
<g id="edge5" class="edge">
<title>dawnet_1_SA4A_p14&#45;&gt;dawnet_1_SA4A_s</title>
<path fill="none" stroke="#000000" d="M2369.1982,-127.8567C2375.7841,-127.8567 2384.7479,-127.8567 2394.6361,-127.8567"/>
<polygon fill="#000000" stroke="#000000" points="2394.7786,-131.3568 2404.7785,-127.8567 2394.7785,-124.3568 2394.7786,-131.3568"/>
</g>
<!-- dawnet_1_SA4A_p15&#45;&gt;dawnet_1_SA4A_t -->
<g id="edge3" class="edge">
<title>dawnet_1_SA4A_p15&#45;&gt;dawnet_1_SA4A_t</title>
<path fill="none" stroke="#000000" d="M2369.1982,-201.0604C2375.7841,-200.5921 2384.7479,-199.9546 2394.6361,-199.2515"/>
<polygon fill="#000000" stroke="#000000" points="2395.052,-202.7308 2404.7785,-198.5302 2394.5554,-195.7485 2395.052,-202.7308"/>
</g>
</g>
</svg>